<?xml version="1.0" encoding="utf-8"?>
<!-- Generator: Adobe Illustrator 16.0.0, SVG Export Plug-In . SVG Version: 6.00 Build 0)  -->
<!DOCTYPE svg PUBLIC "-//W3C//DTD SVG 1.1//EN" "http://www.w3.org/Graphics/SVG/1.1/DTD/svg11.dtd">
<svg version="1.1" id="Layer_1" xmlns="http://www.w3.org/2000/svg" xmlns:xlink="http://www.w3.org/1999/xlink" x="0px" y="0px"
	 width="169px" height="55px" viewBox="0 0 169 55" enable-background="new 0 0 169 55" xml:space="preserve">
	<desc></desc>
	<defs/>
	<path style="" fill="#FFFFFF" stroke="none" d="M31.551,33.978c-0.539,0.404-1.084,0.847-1.635,1.327c-0.55,0.48-1.122,0.987-1.713,1.521
		c-0.592,0.533-1.23,1.062-1.916,1.582c-0.686,0.521-1.432,1.02-2.241,1.494c-0.809,0.475-1.703,0.891-2.681,1.248
		c-0.979,0.357-2.056,0.642-3.234,0.853c-1.178,0.211-2.482,0.316-3.911,0.316c-1.582,0-3.008-0.319-4.28-0.958
		s-2.358-1.501-3.261-2.584s-1.597-2.344-2.083-3.779c-0.486-1.435-0.729-2.944-0.729-4.526c0-1.078,0.117-2.235,0.352-3.472
		c0.234-1.236,0.571-2.496,1.011-3.779c0.439-1.283,0.976-2.563,1.608-3.841s1.351-2.502,2.154-3.673
		c0.802-1.172,1.685-2.259,2.645-3.261c0.961-1.003,1.986-1.875,3.076-2.619c1.09-0.745,2.239-1.328,3.445-1.75
		c1.207-0.421,2.461-0.633,3.762-0.633c0.844,0,1.699,0.149,2.566,0.449c0.867,0.299,1.646,0.759,2.338,1.38
		c0.691,0.621,1.257,1.406,1.696,2.355c0.439,0.95,0.66,2.068,0.66,3.357c0,0.868-0.138,1.744-0.414,2.628
		c-0.276,0.885-0.653,1.735-1.134,2.549c-0.48,0.814-1.045,1.579-1.696,2.294c-0.649,0.715-1.351,1.333-2.1,1.854
		c-0.751,0.522-1.53,0.935-2.338,1.239c-0.809,0.305-1.618,0.458-2.427,0.458c-1.066,0-1.863-0.143-2.39-0.431
		c-0.528-0.287-0.792-0.7-0.792-1.239c0-0.093-0.003-0.205-0.009-0.334c-0.006-0.129-0.009-0.263-0.009-0.405
		c0-0.21,0.012-0.431,0.035-0.659c0.024-0.228,0.071-0.437,0.142-0.624c0.07-0.187,0.173-0.34,0.307-0.457
		c0.135-0.118,0.319-0.176,0.554-0.176c0.141,0,0.263,0.021,0.369,0.062c0.105,0.041,0.223,0.085,0.352,0.131
		c0.129,0.047,0.284,0.09,0.465,0.132c0.182,0.041,0.414,0.062,0.695,0.062c0.75,0,1.509-0.164,2.276-0.492
		c0.768-0.328,1.459-0.791,2.075-1.388c0.615-0.598,1.119-1.311,1.512-2.137c0.392-0.826,0.589-1.736,0.589-2.732
		c0-0.528-0.071-1.029-0.211-1.504c-0.141-0.474-0.369-0.89-0.686-1.248c-0.316-0.357-0.724-0.645-1.222-0.861
		c-0.499-0.216-1.104-0.325-1.819-0.325c-0.844,0-1.667,0.184-2.471,0.553c-0.803,0.37-1.572,0.87-2.311,1.503
		c-0.738,0.633-1.439,1.383-2.101,2.25c-0.662,0.867-1.274,1.796-1.837,2.786c-0.563,0.99-1.069,2.021-1.521,3.094
		s-0.835,2.142-1.151,3.208c-0.317,1.067-0.561,2.101-0.729,3.103c-0.17,1.002-0.255,1.925-0.255,2.769
		c0,1.207,0.149,2.259,0.449,3.155c0.299,0.896,0.723,1.644,1.273,2.241c0.551,0.598,1.225,1.043,2.022,1.336
		c0.797,0.293,1.693,0.439,2.69,0.439c1.241,0,2.398-0.155,3.471-0.466c1.073-0.311,2.095-0.718,3.068-1.222
		c0.973-0.504,1.913-1.072,2.821-1.705c0.908-0.633,1.816-1.269,2.725-1.907c0.908-0.639,1.834-1.248,2.777-1.828
		s1.556-0.542,2.611-0.94l-0.142,3.621C32.118,33.617,32.09,33.573,31.551,33.978L31.551,33.978z M46.967,30.77
		c-0.316-0.422-0.745-0.879-1.284-1.371c-0.539-0.492-1.11-0.973-1.713-1.441c-0.604-0.469-1.199-0.911-1.785-1.327
		c-0.586-0.415-1.089-0.765-1.512-1.045l-0.14,0.193c0.34,0.679,0.595,1.397,0.765,2.153c0.169,0.756,0.254,1.479,0.254,2.171
		s-0.076,1.389-0.228,2.092s-0.373,1.383-0.659,2.039c-0.288,0.656-0.639,1.272-1.055,1.846c-0.417,0.574-0.891,1.072-1.423,1.494
		c-0.534,0.422-1.117,0.756-1.75,1.002s-1.307,0.369-2.021,0.369c-1.031,0-1.914-0.226-2.646-0.677
		c-0.732-0.451-1.333-1.04-1.802-1.767c-0.468-0.727-0.811-1.547-1.027-2.461c-0.218-0.914-0.326-1.839-0.326-2.777
		c0-1.289,0.193-2.493,0.58-3.612c0.387-1.119,0.941-2.092,1.662-2.918c0.72-0.826,1.602-1.477,2.646-1.951
		c1.043-0.475,2.215-0.712,3.516-0.712c1.112,0,2.155,0.173,3.128,0.519c0.973,0.346,1.884,0.809,2.733,1.389
		c0.85,0.58,1.641,1.245,2.373,1.995c0.732,0.75,1.415,1.523,2.048,2.32L46.967,30.77L46.967,30.77z M38.055,27.755
		c-0.083-0.463-0.205-0.864-0.369-1.204c-0.165-0.34-0.375-0.609-0.633-0.809c-0.258-0.199-0.568-0.299-0.932-0.299
		c-0.48,0-0.938,0.206-1.371,0.616c-0.434,0.41-0.814,0.935-1.142,1.573c-0.329,0.639-0.586,1.345-0.773,2.118
		c-0.188,0.773-0.282,1.518-0.282,2.232c0,0.492,0.047,0.955,0.141,1.389c0.094,0.434,0.241,0.812,0.439,1.134
		c0.2,0.322,0.463,0.58,0.792,0.773c0.328,0.193,0.72,0.29,1.178,0.29c0.398,0,0.785-0.202,1.16-0.606s0.704-0.914,0.984-1.529
		c0.281-0.615,0.507-1.295,0.677-2.039s0.255-1.456,0.255-2.136C38.178,28.719,38.137,28.218,38.055,27.755L38.055,27.755z
			M58.077,33.854c0.093,0.24,0.219,0.431,0.377,0.571c0.159,0.141,0.354,0.211,0.589,0.211c0.222,0,0.466-0.044,0.729-0.132
		c0.263-0.088,0.542-0.208,0.835-0.36c0.292-0.152,0.589-0.325,0.887-0.519c0.299-0.193,0.589-0.39,0.871-0.589
		c0.644-0.469,1.317-1.002,2.021-1.6l0.527,4.061c-0.833,0.645-1.652,1.219-2.461,1.723c-0.34,0.211-0.697,0.419-1.072,0.624
		s-0.745,0.387-1.107,0.545c-0.363,0.158-0.719,0.287-1.064,0.387c-0.345,0.1-0.665,0.149-0.958,0.149
		c-0.164,0-0.407-0.035-0.729-0.105s-0.674-0.214-1.055-0.431s-0.762-0.53-1.143-0.94s-0.712-0.955-0.993-1.635
		c-0.434,0.422-0.895,0.823-1.38,1.204s-0.991,0.712-1.512,0.993c-0.522,0.281-1.049,0.508-1.582,0.677
		c-0.534,0.17-1.07,0.255-1.608,0.255c-0.763,0-1.421-0.164-1.979-0.492c-0.557-0.328-1.019-0.765-1.388-1.31
		c-0.37-0.545-0.645-1.163-0.826-1.854s-0.273-1.406-0.273-2.145c0-0.749,0.097-1.509,0.29-2.276s0.475-1.512,0.844-2.232
		c0.37-0.721,0.817-1.399,1.344-2.039c0.528-0.639,1.125-1.207,1.794-1.705c0.667-0.498,1.395-0.911,2.179-1.24
		c0.785-0.328,1.623-0.532,2.514-0.615c0.035-1.5,0.17-2.982,0.404-4.448c0.234-1.464,0.545-2.859,0.932-4.184
		c0.387-1.324,0.841-2.548,1.362-3.673c0.521-1.125,1.092-2.098,1.713-2.918s1.284-1.461,1.987-1.925
		c0.703-0.463,1.429-0.694,2.179-0.694c0.551,0,1.02,0.144,1.406,0.431c0.387,0.288,0.7,0.668,0.941,1.142
		c0.24,0.476,0.413,1.026,0.518,1.652c0.105,0.627,0.158,1.275,0.158,1.942c0,0.411-0.018,0.833-0.053,1.266
		c-0.153,1.653-0.434,3.214-0.844,4.685c-0.41,1.47-0.891,2.903-1.441,4.298c-0.551,1.395-1.149,2.777-1.792,4.149
		c-0.646,1.371-1.272,2.794-1.881,4.271c-0.059,0.164-0.118,0.363-0.176,0.598c-0.059,0.235-0.114,0.489-0.167,0.765
		c-0.053,0.275-0.097,0.557-0.131,0.844c-0.035,0.287-0.053,0.565-0.053,0.835c0,0.34,0.021,0.662,0.062,0.967
		C57.916,33.342,57.982,33.614,58.077,33.854L58.077,33.854z M52.996,30.796c-0.023-0.357-0.042-0.756-0.053-1.195
		c-0.012-0.439-0.023-0.894-0.035-1.362c-0.012-0.468-0.021-0.896-0.027-1.283c-0.005-0.387-0.014-0.703-0.026-0.949
		s-0.023-0.363-0.035-0.352c-0.773,0.375-1.462,0.87-2.065,1.485c-0.604,0.615-1.107,1.28-1.512,1.995
		c-0.404,0.715-0.712,1.436-0.923,2.162c-0.21,0.727-0.316,1.383-0.316,1.969c0,0.234,0.026,0.469,0.079,0.703
		s0.149,0.445,0.29,0.633s0.34,0.34,0.598,0.457s0.592,0.176,1.002,0.176c0.211,0,0.418-0.053,0.624-0.158
		s0.402-0.243,0.589-0.413c0.188-0.17,0.366-0.363,0.536-0.58c0.17-0.217,0.326-0.442,0.466-0.677
		c0.328-0.539,0.627-1.148,0.896-1.828C53.049,31.414,53.019,31.153,52.996,30.796L52.996,30.796z M58.885,21.155
		c0.234-0.645,0.472-1.321,0.711-2.031c0.241-0.709,0.46-1.42,0.66-2.136c0.199-0.714,0.372-1.417,0.519-2.108
		c0.146-0.692,0.249-1.348,0.308-1.969c0.07-0.82,0.105-1.471,0.105-1.951c0-0.633-0.056-1.072-0.167-1.319
		c-0.111-0.246-0.272-0.369-0.483-0.369c-0.375,0-0.715,0.237-1.02,0.712c-0.305,0.475-0.575,1.081-0.808,1.819
		c-0.235,0.738-0.44,1.553-0.616,2.444c-0.175,0.891-0.322,1.751-0.439,2.584c-0.117,0.832-0.21,1.582-0.281,2.249
		c-0.07,0.669-0.117,1.143-0.141,1.424c-0.046,0.575-0.085,1.128-0.115,1.661c-0.028,0.534-0.049,1.02-0.061,1.459
		c-0.013,0.439-0.018,0.824-0.018,1.151c0,0.328,0,0.58,0,0.756v0.176C57.707,24.184,58.323,22.667,58.885,21.155L58.885,21.155z
			M77.395,36.131c-0.504,0.352-1.046,0.697-1.626,1.037s-1.189,0.642-1.828,0.905c-0.639,0.264-1.302,0.475-1.987,0.633
		c-0.685,0.158-1.379,0.237-2.083,0.237c-1.102,0-2.065-0.199-2.891-0.598c-0.826-0.398-1.516-0.935-2.066-1.608
		c-0.551-0.674-0.964-1.453-1.239-2.338c-0.276-0.885-0.414-1.812-0.414-2.786c0-0.656,0.064-1.351,0.193-2.083
		s0.325-1.45,0.589-2.153s0.594-1.373,0.994-2.013c0.398-0.638,0.864-1.201,1.397-1.688c0.533-0.486,1.13-0.873,1.793-1.16
		c0.662-0.288,1.397-0.431,2.206-0.431c0.656,0,1.266,0.104,1.828,0.316c0.563,0.211,1.052,0.507,1.468,0.888
		s0.741,0.841,0.976,1.379c0.234,0.54,0.352,1.143,0.352,1.811c0,0.727-0.179,1.453-0.537,2.18
		c-0.358,0.727-0.853,1.412-1.485,2.057s-1.386,1.219-2.258,1.723c-0.874,0.504-1.82,0.896-2.839,1.178
		c0.175,0.316,0.348,0.58,0.518,0.791c0.17,0.211,0.343,0.375,0.52,0.492c0.175,0.117,0.36,0.199,0.553,0.246
		c0.193,0.047,0.402,0.07,0.624,0.07c0.704,0,1.445-0.141,2.224-0.422c0.779-0.281,1.538-0.633,2.276-1.055
		s1.436-0.882,2.092-1.38s1.213-0.97,1.67-1.415l2.267,2.355C79.65,34.368,78.555,35.312,77.395,36.131L77.395,36.131z
			M68.913,30.356c0.498-0.217,0.96-0.494,1.388-0.835c0.428-0.34,0.789-0.709,1.082-1.107c0.292-0.398,0.439-0.785,0.439-1.16
		c0-0.527-0.097-0.961-0.29-1.301c-0.193-0.34-0.431-0.51-0.712-0.51c-0.504,0-0.934,0.094-1.292,0.282
		c-0.357,0.188-0.656,0.431-0.896,0.729c-0.241,0.299-0.434,0.639-0.58,1.02c-0.147,0.381-0.258,0.765-0.334,1.151
		c-0.077,0.387-0.126,0.762-0.149,1.125c-0.024,0.363-0.036,0.674-0.036,0.932C67.956,30.682,68.415,30.573,68.913,30.356
		L68.913,30.356z M101.362,19.291c-0.393,0.879-1.008,1.673-1.846,2.382s-1.91,1.292-3.217,1.749s-2.874,0.704-4.702,0.738
		c1.16,0,2.174,0.185,3.041,0.553c0.867,0.37,1.594,0.868,2.18,1.495c0.586,0.627,1.025,1.351,1.318,2.171
		c0.292,0.82,0.439,1.682,0.439,2.584c0,0.738-0.1,1.488-0.299,2.25s-0.498,1.494-0.896,2.197s-0.896,1.362-1.494,1.978
		s-1.299,1.151-2.101,1.608c-0.803,0.457-1.708,0.817-2.716,1.081c-1.009,0.264-2.115,0.396-3.322,0.396
		c-0.762,0-1.564-0.05-2.409-0.149c-0.843-0.1-1.696-0.234-2.557-0.404c-0.861-0.17-1.708-0.372-2.54-0.606
		c-0.833-0.235-1.618-0.486-2.355-0.756c-0.329-0.081-0.619-0.205-0.871-0.369c-0.251-0.164-0.377-0.457-0.377-0.879
		c0-1.945,0.05-3.938,0.149-5.977c0.099-2.039,0.302-4.031,0.607-5.977c0.304-1.945,0.744-3.799,1.318-5.562
		c0.574-1.764,1.335-3.343,2.285-4.738c0.832-0.574,1.587-0.861,2.267-0.861c0.855,0,1.57,0.481,2.145,1.441
		c-0.539,0.727-0.999,1.535-1.38,2.426c-0.381,0.89-0.7,1.826-0.958,2.804c-0.258,0.978-0.466,1.977-0.624,2.997
		c-0.158,1.02-0.284,2.016-0.377,2.988c-0.059,0.551-0.109,1.137-0.149,1.758c-0.042,0.622-0.08,1.255-0.115,1.898
		c-0.035,0.645-0.062,1.286-0.079,1.925c-0.018,0.64-0.027,1.251-0.027,1.837c0,0.094,0.002,0.223,0.009,0.387
		c0.005,0.164,0.021,0.334,0.044,0.51s0.058,0.337,0.105,0.483c0.047,0.147,0.117,0.255,0.211,0.325
		c0.714,0.234,1.482,0.434,2.302,0.598c0.82,0.164,1.641,0.246,2.461,0.246c0.996,0,1.961-0.12,2.9-0.36
		c0.938-0.24,1.77-0.621,2.496-1.143s1.31-1.189,1.749-2.004s0.659-1.802,0.659-2.962c0-0.679-0.129-1.245-0.387-1.696
		s-0.596-0.829-1.011-1.134c-0.416-0.305-0.891-0.548-1.424-0.729s-1.079-0.345-1.635-0.492c-0.557-0.147-1.102-0.29-1.635-0.431
		c-0.534-0.141-1.008-0.319-1.423-0.536c-0.417-0.216-0.754-0.486-1.012-0.809c-0.258-0.321-0.387-0.74-0.387-1.257
		c0-0.246,0.015-0.459,0.044-0.642c0.03-0.181,0.1-0.33,0.211-0.448c0.111-0.117,0.275-0.205,0.492-0.264
		c0.217-0.058,0.513-0.088,0.888-0.088c0.504,0,0.964,0.021,1.38,0.062c0.416,0.041,0.864,0.061,1.345,0.061
		c1.125,0,2.142-0.137,3.05-0.413c0.908-0.275,1.682-0.647,2.32-1.116c0.639-0.469,1.131-1.017,1.477-1.643
		c0.346-0.627,0.519-1.298,0.519-2.013c0-0.469-0.135-0.899-0.404-1.292c-0.27-0.393-0.647-0.745-1.134-1.055
		s-1.058-0.583-1.714-0.817s-1.371-0.431-2.145-0.589c-0.773-0.159-1.588-0.275-2.443-0.352c-0.855-0.076-1.723-0.114-2.602-0.114
		c-1.113,0-2.212,0.061-3.296,0.185c-1.083,0.123-2.092,0.311-3.023,0.562c-0.932,0.252-1.758,0.569-2.479,0.95
		c-0.72,0.38-1.269,0.824-1.643,1.328c-0.763,1.383-1.442,2.419-2.039,3.111c-0.598,0.691-1.084,1.036-1.459,1.036
		c-0.516,0-0.774-0.591-0.774-1.775c0-1.148,0.165-2.179,0.493-3.094c0.328-0.914,0.788-1.725,1.38-2.435
		c0.592-0.709,1.295-1.312,2.11-1.81c0.813-0.499,1.705-0.909,2.672-1.231c0.966-0.322,1.989-0.56,3.067-0.711
		c1.078-0.152,2.185-0.229,3.321-0.229c1.325,0,2.655,0.097,3.991,0.29c1.336,0.193,2.619,0.466,3.85,0.817
		c1.23,0.352,2.379,0.777,3.445,1.274c1.066,0.499,1.995,1.049,2.786,1.652c0.791,0.604,1.412,1.257,1.863,1.96
		s0.677,1.436,0.677,2.197C101.951,17.521,101.754,18.412,101.362,19.291L101.362,19.291z M113.157,12.532
		c-0.252,1.142-0.592,2.292-1.02,3.445c-0.429,1.155-0.923,2.312-1.485,3.472c-0.562,1.16-1.148,2.312-1.758,3.454
		s-1.222,2.268-1.837,3.374c-0.615,1.108-1.192,2.189-1.731,3.244c-0.059,0.117-0.12,0.27-0.185,0.457s-0.127,0.39-0.185,0.606
		c-0.06,0.217-0.117,0.448-0.176,0.694s-0.105,0.486-0.141,0.721v0.246c0,0.305,0.032,0.601,0.097,0.888
		c0.063,0.287,0.144,0.545,0.237,0.773s0.193,0.41,0.299,0.545s0.205,0.202,0.299,0.202c0.223,0,0.478-0.047,0.765-0.141
		s0.592-0.22,0.914-0.378s0.653-0.34,0.993-0.545s0.668-0.413,0.984-0.624c0.738-0.492,1.512-1.061,2.32-1.705l1.441,3.691
		c-1.043,0.75-2.074,1.418-3.094,2.004c-0.445,0.246-0.905,0.489-1.38,0.729s-0.952,0.454-1.433,0.642
		c-0.481,0.188-0.949,0.337-1.406,0.448s-0.885,0.167-1.283,0.167c-0.633,0-1.222-0.278-1.767-0.835s-1.02-1.304-1.424-2.241
		s-0.721-2.024-0.949-3.261s-0.343-2.534-0.343-3.894c0-1.043,0.076-2.177,0.229-3.401s0.375-2.488,0.668-3.788
		c0.292-1.301,0.642-2.607,1.046-3.919c0.404-1.313,0.861-2.573,1.371-3.78c0.51-1.207,1.063-2.334,1.661-3.383
		c0.598-1.049,1.225-1.963,1.881-2.742c0.656-0.779,1.342-1.391,2.057-1.837c0.715-0.445,1.441-0.668,2.18-0.668
		c0.504,0,0.919,0.114,1.248,0.343c0.328,0.228,0.586,0.53,0.773,0.905s0.319,0.8,0.396,1.274c0.076,0.475,0.114,0.958,0.114,1.45
		C113.535,10.268,113.409,11.389,113.157,12.532L113.157,12.532z M109.853,10.054c-0.018-0.24-0.073-0.36-0.167-0.36
		c-0.34,0-0.706,0.22-1.099,0.66c-0.393,0.439-0.785,1.034-1.178,1.784s-0.768,1.624-1.125,2.619
		c-0.357,0.996-0.677,2.057-0.958,3.182c-0.281,1.125-0.504,2.283-0.668,3.471c-0.164,1.189-0.246,2.347-0.246,3.472
		c0.527-0.937,1.087-1.993,1.679-3.164c0.592-1.172,1.151-2.379,1.679-3.621c0.527-1.243,0.984-2.482,1.371-3.718
		s0.633-2.388,0.738-3.454C109.879,10.584,109.87,10.294,109.853,10.054L109.853,10.054z M127.809,30.77
		c-0.316-0.422-0.744-0.879-1.283-1.371s-1.11-0.973-1.714-1.441s-1.198-0.911-1.784-1.327c-0.586-0.415-1.09-0.765-1.512-1.045
		l-0.141,0.193c0.34,0.679,0.595,1.397,0.765,2.153s0.255,1.479,0.255,2.171s-0.077,1.389-0.229,2.092
		c-0.152,0.703-0.372,1.383-0.659,2.039s-0.639,1.272-1.055,1.846c-0.416,0.574-0.892,1.072-1.424,1.494
		c-0.533,0.422-1.116,0.756-1.749,1.002s-1.307,0.369-2.021,0.369c-1.031,0-1.913-0.226-2.646-0.677s-1.333-1.04-1.802-1.767
		s-0.812-1.547-1.028-2.461s-0.325-1.839-0.325-2.777c0-1.289,0.193-2.493,0.58-3.612s0.94-2.092,1.661-2.918
		s1.603-1.477,2.646-1.951c1.043-0.475,2.215-0.712,3.516-0.712c1.113,0,2.156,0.173,3.129,0.519
		c0.973,0.346,1.884,0.809,2.733,1.389c0.85,0.58,1.641,1.245,2.373,1.995c0.732,0.75,1.415,1.523,2.048,2.32L127.809,30.77
		L127.809,30.77z M118.896,27.755c-0.082-0.463-0.205-0.864-0.369-1.204s-0.375-0.609-0.633-0.809
		c-0.258-0.199-0.568-0.299-0.932-0.299c-0.48,0-0.938,0.206-1.371,0.616c-0.434,0.41-0.815,0.935-1.143,1.573
		c-0.328,0.639-0.586,1.345-0.773,2.118s-0.281,1.518-0.281,2.232c0,0.492,0.047,0.955,0.141,1.389s0.24,0.812,0.439,1.134
		s0.463,0.58,0.791,0.773s0.721,0.29,1.178,0.29c0.398,0,0.785-0.202,1.16-0.606s0.703-0.914,0.984-1.529s0.507-1.295,0.677-2.039
		s0.255-1.456,0.255-2.136C119.02,28.719,118.979,28.218,118.896,27.755L118.896,27.755z M137.951,35.604
		c-0.434,0.422-0.905,0.832-1.415,1.23s-1.043,0.753-1.6,1.063s-1.137,0.562-1.74,0.756s-1.216,0.29-1.837,0.29
		c-1.078,0-2.024-0.199-2.839-0.598s-1.497-0.932-2.048-1.6s-0.967-1.441-1.248-2.32s-0.422-1.793-0.422-2.742
		c0-0.68,0.07-1.389,0.211-2.127s0.349-1.462,0.624-2.171s0.615-1.386,1.02-2.031c0.404-0.644,0.873-1.209,1.406-1.696
		c0.533-0.486,1.128-0.873,1.784-1.16s1.377-0.431,2.162-0.431c0.668,0,1.286,0.103,1.854,0.308s1.055,0.489,1.459,0.852
		s0.721,0.794,0.949,1.292c0.229,0.499,0.343,1.035,0.343,1.609c0,0.398-0.053,0.791-0.158,1.178s-0.261,0.735-0.466,1.046
		s-0.454,0.56-0.747,0.747s-0.622,0.281-0.984,0.281c-0.551,0-0.911-0.146-1.081-0.439s-0.255-0.697-0.255-1.213
		c0-0.211,0.009-0.434,0.026-0.668c0.018-0.233,0.026-0.445,0.026-0.633c0-0.281-0.029-0.516-0.088-0.703
		s-0.188-0.282-0.387-0.282c-0.48,0-0.891,0.115-1.23,0.343c-0.341,0.229-0.631,0.529-0.87,0.897
		c-0.24,0.369-0.431,0.785-0.571,1.248s-0.252,0.923-0.334,1.38s-0.135,0.895-0.158,1.31c-0.023,0.416-0.035,0.765-0.035,1.046
		c0,0.422,0.038,0.861,0.114,1.318s0.22,0.876,0.431,1.257s0.498,0.697,0.861,0.949c0.362,0.252,0.832,0.378,1.406,0.378
		c0.562,0,1.184-0.173,1.863-0.519s1.362-0.782,2.048-1.31s1.339-1.107,1.96-1.74s1.154-1.23,1.6-1.793l1.213,2.039
		C139.92,33.5,138.971,34.619,137.951,35.604L137.951,35.604z M164.942,24.591c-0.24,1.53-0.604,3.05-1.09,4.562
		s-1.105,2.971-1.854,4.377c-0.75,1.406-1.635,2.669-2.654,3.788s-2.177,2.054-3.472,2.804s-2.733,1.225-4.315,1.424
		c0.551,0.551,1.04,1.083,1.468,1.6c0.428,0.516,0.847,0.976,1.257,1.38s0.838,0.729,1.283,0.976s0.955,0.369,1.529,0.369
		c0.562,0,1.11-0.146,1.644-0.439s1.017-0.615,1.45-0.967c0.504-0.41,0.984-0.885,1.441-1.424
		c0.129-0.094,0.252-0.146,0.369-0.158c0.116-0.012,0.211-0.018,0.281-0.018c0.305,0.059,0.562,0.176,0.773,0.352
		s0.378,0.387,0.501,0.633s0.211,0.507,0.264,0.782s0.079,0.529,0.079,0.765c0,0.305-0.033,0.519-0.097,0.642
		c-0.064,0.123-0.126,0.214-0.185,0.272c-0.012,0.012-0.117,0.12-0.316,0.325s-0.478,0.46-0.835,0.765s-0.785,0.635-1.283,0.993
		c-0.498,0.357-1.049,0.686-1.652,0.984s-1.248,0.547-1.934,0.747c-0.686,0.199-1.397,0.299-2.136,0.299
		c-0.891,0-1.647-0.17-2.268-0.51c-0.621-0.34-1.151-0.776-1.591-1.31s-0.804-1.125-1.09-1.775
		c-0.287-0.65-0.548-1.286-0.782-1.907s-0.457-1.192-0.668-1.714s-0.457-0.917-0.738-1.187c-1.781-0.316-3.305-0.908-4.57-1.775
		s-2.303-1.928-3.111-3.182s-1.4-2.666-1.775-4.236s-0.562-3.21-0.562-4.922c0-1.594,0.149-3.235,0.448-4.922
		c0.299-1.688,0.744-3.331,1.336-4.931c0.592-1.6,1.33-3.107,2.215-4.526c0.885-1.418,1.913-2.663,3.085-3.735
		c1.172-1.073,2.487-1.918,3.946-2.541c1.459-0.62,3.056-0.931,4.79-0.931c1.746,0,3.311,0.333,4.693,1.001
		c1.383,0.667,2.555,1.608,3.516,2.821s1.696,2.678,2.206,4.395c0.51,1.717,0.765,3.618,0.765,5.704
		C165.303,21.611,165.182,23.061,164.942,24.591L164.942,24.591z M159.889,15.327c-0.234-1.142-0.592-2.132-1.072-2.971
		c-0.48-0.837-1.084-1.49-1.811-1.959c-0.728-0.469-1.582-0.703-2.566-0.703c-0.996,0-1.963,0.275-2.9,0.826
		c-0.938,0.551-1.816,1.295-2.637,2.232c-0.82,0.938-1.57,2.022-2.25,3.253c-0.68,1.23-1.263,2.53-1.749,3.901
		c-0.486,1.372-0.864,2.766-1.134,4.184c-0.27,1.419-0.404,2.778-0.404,4.079c0,1.384,0.152,2.663,0.457,3.841
		s0.744,2.197,1.318,3.059s1.277,1.535,2.109,2.021s1.775,0.729,2.83,0.729c0.89,0,1.72-0.185,2.487-0.554s1.474-0.87,2.118-1.503
		s1.228-1.38,1.749-2.241c0.521-0.861,0.987-1.78,1.397-2.76c0.41-0.979,0.768-1.992,1.072-3.041s0.557-2.086,0.756-3.111
		c0.199-1.026,0.346-2.016,0.439-2.971c0.094-0.955,0.141-1.819,0.141-2.593C160.24,17.708,160.123,16.47,159.889,15.327
		L159.889,15.327z"/>
</svg>
